# MagicaVoxel @ Ephtracy

# group
o 

# material
mtllib T_1.mtl
usemtl palette

# normals
vn -1 0 0
vn 1 0 0
vn 0 0 1
vn 0 0 -1
vn 0 -1 0
vn 0 1 0

# texcoords
vt 0.681641 0.5
vt 0.982422 0.5
vt 0.990234 0.5

# verts
v -2 0 2
v -2 0 -2
v -2 0.2 2
v -2 0.2 1.6
v -2 0.2 -1.6
v -2 0.2 -2
v -2 1.3 2
v -2 1.3 1.6
v -2 1.4 -1.6
v -2 1.4 -2
v -0.6 0.2 0.5
v -0.6 0.2 -0.6
v -0.6 0.3 0.5
v -0.6 0.3 -0.6
v -0.4 1.9 -2.38419e-07
v -0.4 1.9 -0.1
v -0.4 3 -2.38419e-07
v -0.4 3 -0.1
v -0.3 1.6 -0.1
v -0.3 1.6 -0.2
v -0.3 1.7 -2.38419e-07
v -0.3 1.7 -0.1
v -0.3 1.8 0.0999999
v -0.3 1.8 -2.38419e-07
v -0.3 1.9 -2.38419e-07
v -0.3 1.9 -0.1
v -0.3 3 -2.38419e-07
v -0.3 3 -0.1
v -0.3 3.2 0.0999999
v -0.3 3.2 -0.2
v -0.2 1.5 0.0999999
v -0.2 1.5 -0.2
v -0.2 1.6 -0.1
v -0.2 1.6 -0.2
v -0.2 1.6 -0.3
v -0.2 1.7 0.2
v -0.2 1.7 0.0999999
v -0.2 1.7 -2.38419e-07
v -0.2 1.7 -0.1
v -0.2 1.8 0.0999999
v -0.2 1.8 -2.38419e-07
v -0.2 3.2 0.2
v -0.2 3.2 0.0999999
v -0.2 3.2 -0.2
v -0.2 3.2 -0.3
v -0.2 3.3 -0.1
v -0.2 3.3 -0.2
v -0.2 3.4 0.0999999
v -0.2 3.4 -0.1
v -0.0999999 1.4 -2.38419e-07
v -0.0999999 1.4 -0.1
v -0.0999999 1.5 -2.38419e-07
v -0.0999999 1.5 -0.1
v -0.0999999 1.6 0.2
v -0.0999999 1.6 0.0999999
v -0.0999999 1.7 0.2
v -0.0999999 1.7 0.0999999
v -0.0999999 1.9 0.3
v -0.0999999 1.9 0.2
v -0.0999999 1.9 -0.3
v -0.0999999 1.9 -0.4
v -0.0999999 3 0.3
v -0.0999999 3 0.2
v -0.0999999 3 -0.3
v -0.0999999 3 -0.4
v -0.0999999 3.3 -0.1
v -0.0999999 3.3 -0.2
v -0.0999999 3.4 -2.38419e-07
v -0.0999999 3.4 -0.1
v -0.0999999 3.5 -0.1
v -0.0999999 3.5 -0.2
v -0.0999999 3.7 -2.38419e-07
v -0.0999999 3.7 -0.1
v 1.6 0.2 2
v 1.6 0.2 1.6
v 1.6 0.2 -1.6
v 1.6 0.2 -2
v 1.6 1.4 2
v 1.6 1.4 1.6
v 1.6 1.4 -1.6
v 1.6 1.4 -2
v -1.7 0.7 2
v -1.7 0.7 1.9
v -1.7 0.8 2
v -1.7 0.8 1.9
v -1.6 0.2 2
v -1.6 0.2 1.6
v -1.6 0.2 -1.6
v -1.6 0.2 -2
v -1.6 0.7 2
v -1.6 0.7 1.9
v -1.6 0.8 2
v -1.6 0.8 1.9
v -1.6 1.3 2
v -1.6 1.3 1.6
v -1.6 1.4 -1.6
v -1.6 1.4 -2
v -0.0999999 1.6 -0.2
v -0.0999999 1.6 -0.3
v -0.0999999 1.7 -0.2
v -0.0999999 1.7 -0.3
v 2.38419e-07 1.4 -2.38419e-07
v 2.38419e-07 1.4 -0.1
v 2.38419e-07 1.5 -2.38419e-07
v 2.38419e-07 1.5 -0.1
v 2.38419e-07 1.5 -0.2
v 2.38419e-07 1.6 0.2
v 2.38419e-07 1.6 0.0999999
v 2.38419e-07 1.6 -0.1
v 2.38419e-07 1.6 -0.2
v 2.38419e-07 1.7 -0.2
v 2.38419e-07 1.7 -0.3
v 2.38419e-07 1.8 0.2
v 2.38419e-07 1.8 0.0999999
v 2.38419e-07 1.9 0.3
v 2.38419e-07 1.9 0.2
v 2.38419e-07 1.9 -0.2
v 2.38419e-07 1.9 -0.3
v 2.38419e-07 1.9 -0.4
v 2.38419e-07 3 0.3
v 2.38419e-07 3 0.2
v 2.38419e-07 3 -0.3
v 2.38419e-07 3 -0.4
v 2.38419e-07 3.4 -2.38419e-07
v 2.38419e-07 3.4 -0.1
v 2.38419e-07 3.5 -0.1
v 2.38419e-07 3.7 -2.38419e-07
v 2.38419e-07 3.7 -0.1
v 0.1 1.5 0.0999999
v 0.1 1.5 -0.1
v 0.1 1.6 -0.1
v 0.1 1.6 -0.2
v 0.1 1.8 0.2
v 0.1 1.8 0.0999999
v 0.1 1.8 -0.1
v 0.1 1.9 -0.2
v 0.1 1.9 -0.3
v 0.1 2 -0.1
v 0.1 2 -0.2
v 0.1 3 0.0999999
v 0.1 3 -0.2
v 0.1 3.2 0.2
v 0.1 3.2 0.0999999
v 0.1 3.2 -0.2
v 0.1 3.2 -0.3
v 0.1 3.4 0.0999999
v 0.1 3.4 -0.1
v 0.1 3.5 -0.1
v 0.1 3.5 -0.2
v 0.2 1.8 0.0999999
v 0.2 1.8 -0.1
v 0.2 2 -0.1
v 0.2 2 -0.2
v 0.2 2.1 -2.38419e-07
v 0.2 2.1 -0.1
v 0.2 2.9 -2.38419e-07
v 0.2 2.9 -0.1
v 0.2 3 0.0999999
v 0.2 3 -0.2
v 0.3 2.1 -2.38419e-07
v 0.3 2.1 -0.1
v 0.3 2.9 -2.38419e-07
v 0.3 2.9 -0.1
v 0.5 0.2 0.5
v 0.5 0.2 -0.6
v 0.5 0.3 0.5
v 0.5 0.3 -0.6
v 2 0 2
v 2 0 -2
v 2 0.2 2
v 2 0.2 1.6
v 2 0.2 -1.6
v 2 0.2 -2
v 2 1.4 2
v 2 1.4 1.6
v 2 1.4 -1.6
v 2 1.4 -2
v -2 0 2
v -2 0.2 2
v -2 1.3 2
v -1.7 0.7 2
v -1.7 0.8 2
v -1.6 0.2 2
v -1.6 0.7 2
v -1.6 0.8 2
v -1.6 1.3 2
v 1.6 0.2 2
v 1.6 1.4 2
v 2 0 2
v 2 0.2 2
v 2 1.4 2
v -1.7 0.7 1.9
v -1.7 0.8 1.9
v -1.6 0.7 1.9
v -1.6 0.8 1.9
v -0.6 0.2 0.5
v -0.6 0.3 0.5
v 0.5 0.2 0.5
v 0.5 0.3 0.5
v -0.0999999 1.9 0.3
v -0.0999999 3 0.3
v 2.38419e-07 1.9 0.3
v 2.38419e-07 3 0.3
v -0.2 1.7 0.2
v -0.2 3.2 0.2
v -0.0999999 1.6 0.2
v -0.0999999 1.7 0.2
v -0.0999999 1.9 0.2
v -0.0999999 3 0.2
v 2.38419e-07 1.6 0.2
v 2.38419e-07 1.8 0.2
v 2.38419e-07 1.9 0.2
v 2.38419e-07 3 0.2
v 0.1 1.8 0.2
v 0.1 3.2 0.2
v -0.3 1.8 0.0999999
v -0.3 3.2 0.0999999
v -0.2 1.5 0.0999999
v -0.2 1.7 0.0999999
v -0.2 1.8 0.0999999
v -0.2 3.2 0.0999999
v -0.2 3.4 0.0999999
v -0.0999999 1.6 0.0999999
v -0.0999999 1.7 0.0999999
v 2.38419e-07 1.6 0.0999999
v 2.38419e-07 1.8 0.0999999
v 0.1 1.5 0.0999999
v 0.1 1.8 0.0999999
v 0.1 3 0.0999999
v 0.1 3.2 0.0999999
v 0.1 3.4 0.0999999
v 0.2 1.8 0.0999999
v 0.2 3 0.0999999
v -0.4 1.9 -2.38419e-07
v -0.4 3 -2.38419e-07
v -0.3 1.7 -2.38419e-07
v -0.3 1.8 -2.38419e-07
v -0.3 1.9 -2.38419e-07
v -0.3 3 -2.38419e-07
v -0.2 1.7 -2.38419e-07
v -0.2 1.8 -2.38419e-07
v -0.0999999 1.4 -2.38419e-07
v -0.0999999 1.5 -2.38419e-07
v -0.0999999 3.4 -2.38419e-07
v -0.0999999 3.7 -2.38419e-07
v 2.38419e-07 1.4 -2.38419e-07
v 2.38419e-07 1.5 -2.38419e-07
v 2.38419e-07 3.4 -2.38419e-07
v 2.38419e-07 3.7 -2.38419e-07
v 0.2 2.1 -2.38419e-07
v 0.2 2.9 -2.38419e-07
v 0.3 2.1 -2.38419e-07
v 0.3 2.9 -2.38419e-07
v -0.3 1.6 -0.1
v -0.3 1.7 -0.1
v -0.2 1.6 -0.1
v -0.2 1.7 -0.1
v 2.38419e-07 3.4 -0.1
v 2.38419e-07 3.5 -0.1
v 0.1 3.4 -0.1
v 0.1 3.5 -0.1
v -2 0.2 -1.6
v -2 1.4 -1.6
v -1.6 0.2 -1.6
v -1.6 1.4 -1.6
v 1.6 0.2 -1.6
v 1.6 1.4 -1.6
v 2 0.2 -1.6
v 2 1.4 -1.6
v -2 0.2 1.6
v -2 1.3 1.6
v -1.6 0.2 1.6
v -1.6 1.3 1.6
v 1.6 0.2 1.6
v 1.6 1.4 1.6
v 2 0.2 1.6
v 2 1.4 1.6
v -0.4 1.9 -0.1
v -0.4 3 -0.1
v -0.3 1.9 -0.1
v -0.3 3 -0.1
v -0.2 3.3 -0.1
v -0.2 3.4 -0.1
v -0.0999999 1.4 -0.1
v -0.0999999 1.5 -0.1
v -0.0999999 3.3 -0.1
v -0.0999999 3.4 -0.1
v -0.0999999 3.5 -0.1
v -0.0999999 3.7 -0.1
v 2.38419e-07 1.4 -0.1
v 2.38419e-07 1.5 -0.1
v 2.38419e-07 1.6 -0.1
v 2.38419e-07 3.5 -0.1
v 2.38419e-07 3.7 -0.1
v 0.1 1.5 -0.1
v 0.1 1.6 -0.1
v 0.1 1.8 -0.1
v 0.1 2 -0.1
v 0.2 1.8 -0.1
v 0.2 2 -0.1
v 0.2 2.1 -0.1
v 0.2 2.9 -0.1
v 0.3 2.1 -0.1
v 0.3 2.9 -0.1
v -0.3 1.6 -0.2
v -0.3 3.2 -0.2
v -0.2 1.5 -0.2
v -0.2 1.6 -0.2
v -0.2 3.2 -0.2
v -0.2 3.3 -0.2
v -0.0999999 1.6 -0.2
v -0.0999999 1.7 -0.2
v -0.0999999 3.3 -0.2
v -0.0999999 3.5 -0.2
v 2.38419e-07 1.5 -0.2
v 2.38419e-07 1.6 -0.2
v 2.38419e-07 1.7 -0.2
v 2.38419e-07 1.9 -0.2
v 0.1 1.6 -0.2
v 0.1 1.9 -0.2
v 0.1 2 -0.2
v 0.1 3 -0.2
v 0.1 3.2 -0.2
v 0.1 3.5 -0.2
v 0.2 2 -0.2
v 0.2 3 -0.2
v -0.2 1.6 -0.3
v -0.2 3.2 -0.3
v -0.0999999 1.6 -0.3
v -0.0999999 1.7 -0.3
v -0.0999999 1.9 -0.3
v -0.0999999 3 -0.3
v 2.38419e-07 1.7 -0.3
v 2.38419e-07 1.9 -0.3
v 2.38419e-07 3 -0.3
v 0.1 1.9 -0.3
v 0.1 3.2 -0.3
v -0.0999999 1.9 -0.4
v -0.0999999 3 -0.4
v 2.38419e-07 1.9 -0.4
v 2.38419e-07 3 -0.4
v -0.6 0.2 -0.6
v -0.6 0.3 -0.6
v 0.5 0.2 -0.6
v 0.5 0.3 -0.6
v -2 0 -2
v -2 0.2 -2
v -2 1.4 -2
v -1.6 0.2 -2
v -1.6 1.4 -2
v 1.6 0.2 -2
v 1.6 1.4 -2
v 2 0 -2
v 2 0.2 -2
v 2 1.4 -2
v -2 0 2
v 2 0 2
v -2 0 -2
v 2 0 -2
v -1.7 0.8 2
v -1.6 0.8 2
v -1.7 0.8 1.9
v -1.6 0.8 1.9
v -0.0999999 1.4 -2.38419e-07
v 2.38419e-07 1.4 -2.38419e-07
v -0.0999999 1.4 -0.1
v 2.38419e-07 1.4 -0.1
v -0.2 1.5 0.0999999
v 0.1 1.5 0.0999999
v -0.0999999 1.5 -2.38419e-07
v 2.38419e-07 1.5 -2.38419e-07
v -0.0999999 1.5 -0.1
v 2.38419e-07 1.5 -0.1
v 0.1 1.5 -0.1
v -0.2 1.5 -0.2
v 2.38419e-07 1.5 -0.2
v -0.0999999 1.6 0.2
v 2.38419e-07 1.6 0.2
v -0.0999999 1.6 0.0999999
v 2.38419e-07 1.6 0.0999999
v -0.3 1.6 -0.1
v -0.2 1.6 -0.1
v 2.38419e-07 1.6 -0.1
v 0.1 1.6 -0.1
v -0.3 1.6 -0.2
v -0.2 1.6 -0.2
v -0.0999999 1.6 -0.2
v 2.38419e-07 1.6 -0.2
v 0.1 1.6 -0.2
v -0.2 1.6 -0.3
v -0.0999999 1.6 -0.3
v -0.2 1.7 0.2
v -0.0999999 1.7 0.2
v -0.2 1.7 0.0999999
v -0.0999999 1.7 0.0999999
v -0.3 1.7 -2.38419e-07
v -0.2 1.7 -2.38419e-07
v -0.3 1.7 -0.1
v -0.2 1.7 -0.1
v -0.0999999 1.7 -0.2
v 2.38419e-07 1.7 -0.2
v -0.0999999 1.7 -0.3
v 2.38419e-07 1.7 -0.3
v 2.38419e-07 1.8 0.2
v 0.1 1.8 0.2
v -0.3 1.8 0.0999999
v -0.2 1.8 0.0999999
v 2.38419e-07 1.8 0.0999999
v 0.1 1.8 0.0999999
v 0.2 1.8 0.0999999
v -0.3 1.8 -2.38419e-07
v -0.2 1.8 -2.38419e-07
v 0.1 1.8 -0.1
v 0.2 1.8 -0.1
v -0.0999999 1.9 0.3
v 2.38419e-07 1.9 0.3
v -0.0999999 1.9 0.2
v 2.38419e-07 1.9 0.2
v -0.4 1.9 -2.38419e-07
v -0.3 1.9 -2.38419e-07
v -0.4 1.9 -0.1
v -0.3 1.9 -0.1
v 2.38419e-07 1.9 -0.2
v 0.1 1.9 -0.2
v -0.0999999 1.9 -0.3
v 2.38419e-07 1.9 -0.3
v 0.1 1.9 -0.3
v -0.0999999 1.9 -0.4
v 2.38419e-07 1.9 -0.4
v 0.1 2 -0.1
v 0.2 2 -0.1
v 0.1 2 -0.2
v 0.2 2 -0.2
v 0.2 2.1 -2.38419e-07
v 0.3 2.1 -2.38419e-07
v 0.2 2.1 -0.1
v 0.3 2.1 -0.1
v -1.6 0.2 2
v 1.6 0.2 2
v -2 0.2 1.6
v -1.6 0.2 1.6
v 1.6 0.2 1.6
v 2 0.2 1.6
v -0.6 0.2 0.5
v 0.5 0.2 0.5
v -0.6 0.2 -0.6
v 0.5 0.2 -0.6
v -2 0.2 -1.6
v -1.6 0.2 -1.6
v 1.6 0.2 -1.6
v 2 0.2 -1.6
v -1.6 0.2 -2
v 1.6 0.2 -2
v -0.6 0.3 0.5
v 0.5 0.3 0.5
v -0.6 0.3 -0.6
v 0.5 0.3 -0.6
v -1.7 0.7 2
v -1.6 0.7 2
v -1.7 0.7 1.9
v -1.6 0.7 1.9
v -2 1.3 2
v -1.6 1.3 2
v -2 1.3 1.6
v -1.6 1.3 1.6
v 1.6 1.4 2
v 2 1.4 2
v 1.6 1.4 1.6
v 2 1.4 1.6
v -2 1.4 -1.6
v -1.6 1.4 -1.6
v 1.6 1.4 -1.6
v 2 1.4 -1.6
v -2 1.4 -2
v -1.6 1.4 -2
v 1.6 1.4 -2
v 2 1.4 -2
v 0.2 2.9 -2.38419e-07
v 0.3 2.9 -2.38419e-07
v 0.2 2.9 -0.1
v 0.3 2.9 -0.1
v -0.0999999 3 0.3
v 2.38419e-07 3 0.3
v -0.0999999 3 0.2
v 2.38419e-07 3 0.2
v 0.1 3 0.0999999
v 0.2 3 0.0999999
v -0.4 3 -2.38419e-07
v -0.3 3 -2.38419e-07
v -0.4 3 -0.1
v -0.3 3 -0.1
v 0.1 3 -0.2
v 0.2 3 -0.2
v -0.0999999 3 -0.3
v 2.38419e-07 3 -0.3
v -0.0999999 3 -0.4
v 2.38419e-07 3 -0.4
v -0.2 3.2 0.2
v 0.1 3.2 0.2
v -0.3 3.2 0.0999999
v -0.2 3.2 0.0999999
v 0.1 3.2 0.0999999
v -0.3 3.2 -0.2
v -0.2 3.2 -0.2
v 0.1 3.2 -0.2
v -0.2 3.2 -0.3
v 0.1 3.2 -0.3
v -0.2 3.3 -0.1
v -0.0999999 3.3 -0.1
v -0.2 3.3 -0.2
v -0.0999999 3.3 -0.2
v -0.2 3.4 0.0999999
v 0.1 3.4 0.0999999
v -0.0999999 3.4 -2.38419e-07
v 2.38419e-07 3.4 -2.38419e-07
v -0.2 3.4 -0.1
v -0.0999999 3.4 -0.1
v 2.38419e-07 3.4 -0.1
v 0.1 3.4 -0.1
v -0.0999999 3.5 -0.1
v 2.38419e-07 3.5 -0.1
v 0.1 3.5 -0.1
v -0.0999999 3.5 -0.2
v 0.1 3.5 -0.2
v -0.0999999 3.7 -2.38419e-07
v 2.38419e-07 3.7 -2.38419e-07
v -0.0999999 3.7 -0.1
v 2.38419e-07 3.7 -0.1

# faces
f 3/2/1 2/2/1 1/2/1
f 4/2/1 2/2/1 3/2/1
f 5/2/1 2/2/1 4/2/1
f 6/2/1 2/2/1 5/2/1
f 7/3/1 4/3/1 3/3/1
f 8/3/1 4/3/1 7/3/1
f 9/3/1 6/3/1 5/3/1
f 10/3/1 6/3/1 9/3/1
f 13/3/1 12/3/1 11/3/1
f 14/3/1 12/3/1 13/3/1
f 17/1/1 16/1/1 15/1/1
f 18/1/1 16/1/1 17/1/1
f 22/1/1 20/1/1 19/1/1
f 24/1/1 22/1/1 21/1/1
f 25/1/1 22/1/1 24/1/1
f 25/1/1 24/1/1 23/1/1
f 26/1/1 20/1/1 22/1/1
f 26/1/1 22/1/1 25/1/1
f 27/1/1 25/1/1 23/1/1
f 28/1/1 20/1/1 26/1/1
f 29/1/1 27/1/1 23/1/1
f 29/1/1 28/1/1 27/1/1
f 30/1/1 20/1/1 28/1/1
f 30/1/1 28/1/1 29/1/1
f 33/1/1 32/1/1 31/1/1
f 34/1/1 32/1/1 33/1/1
f 37/1/1 33/1/1 31/1/1
f 38/1/1 33/1/1 37/1/1
f 39/1/1 33/1/1 38/1/1
f 40/1/1 37/1/1 36/1/1
f 40/1/1 38/1/1 37/1/1
f 41/1/1 38/1/1 40/1/1
f 42/1/1 40/1/1 36/1/1
f 43/1/1 40/1/1 42/1/1
f 44/1/1 35/1/1 34/1/1
f 45/1/1 35/1/1 44/1/1
f 46/1/1 44/1/1 43/1/1
f 47/1/1 44/1/1 46/1/1
f 48/1/1 46/1/1 43/1/1
f 49/1/1 46/1/1 48/1/1
f 52/1/1 51/1/1 50/1/1
f 53/1/1 51/1/1 52/1/1
f 56/1/1 55/1/1 54/1/1
f 57/1/1 55/1/1 56/1/1
f 62/1/1 59/1/1 58/1/1
f 63/1/1 59/1/1 62/1/1
f 64/1/1 61/1/1 60/1/1
f 65/1/1 61/1/1 64/1/1
f 69/1/1 67/1/1 66/1/1
f 70/1/1 67/1/1 69/1/1
f 70/1/1 69/1/1 68/1/1
f 71/1/1 67/1/1 70/1/1
f 72/1/1 70/1/1 68/1/1
f 73/1/1 70/1/1 72/1/1
f 78/3/1 75/3/1 74/3/1
f 79/3/1 75/3/1 78/3/1
f 80/3/1 77/3/1 76/3/1
f 81/3/1 77/3/1 80/3/1
f 82/3/2 83/3/2 84/3/2
f 84/3/2 83/3/2 85/3/2
f 86/3/2 87/3/2 90/3/2
f 90/3/2 87/3/2 91/3/2
f 91/3/2 87/3/2 93/3/2
f 92/3/2 93/3/2 94/3/2
f 93/3/2 87/3/2 95/3/2
f 94/3/2 93/3/2 95/3/2
f 88/3/2 89/3/2 96/3/2
f 96/3/2 89/3/2 97/3/2
f 98/1/2 99/1/2 100/1/2
f 100/1/2 99/1/2 101/1/2
f 102/1/2 103/1/2 104/1/2
f 104/1/2 103/1/2 105/1/2
f 105/1/2 106/1/2 109/1/2
f 109/1/2 106/1/2 110/1/2
f 107/1/2 108/1/2 113/1/2
f 113/1/2 108/1/2 114/1/2
f 111/1/2 112/1/2 117/1/2
f 117/1/2 112/1/2 118/1/2
f 115/1/2 116/1/2 120/1/2
f 120/1/2 116/1/2 121/1/2
f 118/1/2 119/1/2 122/1/2
f 122/1/2 119/1/2 123/1/2
f 124/1/2 125/1/2 126/1/2
f 124/1/2 126/1/2 127/1/2
f 127/1/2 126/1/2 128/1/2
f 129/1/2 130/1/2 131/1/2
f 129/1/2 131/1/2 134/1/2
f 131/1/2 132/1/2 134/1/2
f 134/1/2 132/1/2 135/1/2
f 135/1/2 132/1/2 136/1/2
f 135/1/2 136/1/2 138/1/2
f 136/1/2 137/1/2 138/1/2
f 138/1/2 137/1/2 139/1/2
f 133/1/2 134/1/2 140/1/2
f 139/1/2 137/1/2 141/1/2
f 133/1/2 140/1/2 142/1/2
f 140/1/2 141/1/2 142/1/2
f 142/1/2 141/1/2 143/1/2
f 141/1/2 137/1/2 144/1/2
f 143/1/2 141/1/2 144/1/2
f 144/1/2 137/1/2 145/1/2
f 143/1/2 144/1/2 146/1/2
f 146/1/2 144/1/2 147/1/2
f 147/1/2 144/1/2 148/1/2
f 148/1/2 144/1/2 149/1/2
f 150/1/2 151/1/2 152/1/2
f 150/1/2 152/1/2 154/1/2
f 152/1/2 153/1/2 154/1/2
f 154/1/2 153/1/2 155/1/2
f 150/1/2 154/1/2 156/1/2
f 155/1/2 153/1/2 157/1/2
f 150/1/2 156/1/2 158/1/2
f 156/1/2 157/1/2 158/1/2
f 157/1/2 153/1/2 159/1/2
f 158/1/2 157/1/2 159/1/2
f 160/1/2 161/1/2 162/1/2
f 162/1/2 161/1/2 163/1/2
f 164/3/2 165/3/2 166/3/2
f 166/3/2 165/3/2 167/3/2
f 168/2/2 169/2/2 170/2/2
f 170/2/2 169/2/2 171/2/2
f 171/2/2 169/2/2 172/2/2
f 172/2/2 169/2/2 173/2/2
f 170/3/2 171/3/2 174/3/2
f 174/3/2 171/3/2 175/3/2
f 172/3/2 173/3/2 176/3/2
f 176/3/2 173/3/2 177/3/2
f 181/3/3 180/3/3 179/3/3
f 182/3/3 180/3/3 181/3/3
f 183/2/3 179/2/3 178/2/3
f 183/3/3 181/3/3 179/3/3
f 184/3/3 181/3/3 183/3/3
f 185/3/3 180/3/3 182/3/3
f 186/3/3 180/3/3 185/3/3
f 187/2/3 183/2/3 178/2/3
f 189/2/3 187/2/3 178/2/3
f 190/3/3 188/3/3 187/3/3
f 190/2/3 187/2/3 189/2/3
f 191/3/3 188/3/3 190/3/3
f 194/3/3 193/3/3 192/3/3
f 195/3/3 193/3/3 194/3/3
f 198/3/3 197/3/3 196/3/3
f 199/3/3 197/3/3 198/3/3
f 202/1/3 201/1/3 200/1/3
f 203/1/3 201/1/3 202/1/3
f 207/1/3 205/1/3 204/1/3
f 208/1/3 205/1/3 207/1/3
f 209/1/3 205/1/3 208/1/3
f 210/1/3 207/1/3 206/1/3
f 210/1/3 208/1/3 207/1/3
f 211/1/3 208/1/3 210/1/3
f 212/1/3 208/1/3 211/1/3
f 213/1/3 205/1/3 209/1/3
f 214/1/3 212/1/3 211/1/3
f 214/1/3 213/1/3 212/1/3
f 215/1/3 205/1/3 213/1/3
f 215/1/3 213/1/3 214/1/3
f 220/1/3 217/1/3 216/1/3
f 221/1/3 217/1/3 220/1/3
f 223/1/3 219/1/3 218/1/3
f 224/1/3 219/1/3 223/1/3
f 225/1/3 223/1/3 218/1/3
f 227/1/3 225/1/3 218/1/3
f 227/1/3 226/1/3 225/1/3
f 228/1/3 226/1/3 227/1/3
f 230/1/3 222/1/3 221/1/3
f 231/1/3 222/1/3 230/1/3
f 232/1/3 229/1/3 228/1/3
f 233/1/3 229/1/3 232/1/3
f 238/1/3 235/1/3 234/1/3
f 239/1/3 235/1/3 238/1/3
f 240/1/3 237/1/3 236/1/3
f 241/1/3 237/1/3 240/1/3
f 246/1/3 243/1/3 242/1/3
f 247/1/3 243/1/3 246/1/3
f 248/1/3 245/1/3 244/1/3
f 249/1/3 245/1/3 248/1/3
f 252/1/3 251/1/3 250/1/3
f 253/1/3 251/1/3 252/1/3
f 256/1/3 255/1/3 254/1/3
f 257/1/3 255/1/3 256/1/3
f 260/1/3 259/1/3 258/1/3
f 261/1/3 259/1/3 260/1/3
f 264/3/3 263/3/3 262/3/3
f 265/3/3 263/3/3 264/3/3
f 268/3/3 267/3/3 266/3/3
f 269/3/3 267/3/3 268/3/3
f 270/3/4 271/3/4 272/3/4
f 272/3/4 271/3/4 273/3/4
f 274/3/4 275/3/4 276/3/4
f 276/3/4 275/3/4 277/3/4
f 278/1/4 279/1/4 280/1/4
f 280/1/4 279/1/4 281/1/4
f 282/1/4 283/1/4 286/1/4
f 286/1/4 283/1/4 287/1/4
f 284/1/4 285/1/4 290/1/4
f 290/1/4 285/1/4 291/1/4
f 288/1/4 289/1/4 293/1/4
f 293/1/4 289/1/4 294/1/4
f 291/1/4 292/1/4 295/1/4
f 295/1/4 292/1/4 296/1/4
f 297/1/4 298/1/4 299/1/4
f 299/1/4 298/1/4 300/1/4
f 301/1/4 302/1/4 303/1/4
f 303/1/4 302/1/4 304/1/4
f 305/1/4 306/1/4 308/1/4
f 308/1/4 306/1/4 309/1/4
f 307/1/4 308/1/4 311/1/4
f 309/1/4 310/1/4 313/1/4
f 311/1/4 312/1/4 315/1/4
f 307/1/4 311/1/4 315/1/4
f 315/1/4 312/1/4 316/1/4
f 316/1/4 312/1/4 317/1/4
f 317/1/4 318/1/4 319/1/4
f 316/1/4 317/1/4 319/1/4
f 319/1/4 318/1/4 320/1/4
f 313/1/4 314/1/4 323/1/4
f 309/1/4 313/1/4 323/1/4
f 323/1/4 314/1/4 324/1/4
f 321/1/4 322/1/4 325/1/4
f 325/1/4 322/1/4 326/1/4
f 327/1/4 328/1/4 329/1/4
f 329/1/4 328/1/4 330/1/4
f 330/1/4 328/1/4 331/1/4
f 331/1/4 328/1/4 332/1/4
f 330/1/4 331/1/4 333/1/4
f 333/1/4 331/1/4 334/1/4
f 332/1/4 328/1/4 335/1/4
f 334/1/4 335/1/4 336/1/4
f 335/1/4 328/1/4 337/1/4
f 336/1/4 335/1/4 337/1/4
f 338/1/4 339/1/4 340/1/4
f 340/1/4 339/1/4 341/1/4
f 342/3/4 343/3/4 344/3/4
f 344/3/4 343/3/4 345/3/4
f 346/2/4 347/2/4 349/2/4
f 347/3/4 348/3/4 349/3/4
f 349/3/4 348/3/4 350/3/4
f 346/2/4 349/2/4 351/2/4
f 346/2/4 351/2/4 353/2/4
f 351/3/4 352/3/4 354/3/4
f 353/2/4 351/2/4 354/2/4
f 354/3/4 352/3/4 355/3/4
f 358/2/5 357/2/5 356/2/5
f 359/2/5 357/2/5 358/2/5
f 362/3/5 361/3/5 360/3/5
f 363/3/5 361/3/5 362/3/5
f 366/1/5 365/1/5 364/1/5
f 367/1/5 365/1/5 366/1/5
f 370/1/5 369/1/5 368/1/5
f 371/1/5 369/1/5 370/1/5
f 372/1/5 370/1/5 368/1/5
f 373/1/5 369/1/5 371/1/5
f 374/1/5 369/1/5 373/1/5
f 375/1/5 372/1/5 368/1/5
f 375/1/5 373/1/5 372/1/5
f 376/1/5 373/1/5 375/1/5
f 379/1/5 378/1/5 377/1/5
f 380/1/5 378/1/5 379/1/5
f 385/1/5 382/1/5 381/1/5
f 386/1/5 382/1/5 385/1/5
f 388/1/5 384/1/5 383/1/5
f 389/1/5 384/1/5 388/1/5
f 390/1/5 387/1/5 386/1/5
f 391/1/5 387/1/5 390/1/5
f 394/1/5 393/1/5 392/1/5
f 395/1/5 393/1/5 394/1/5
f 398/1/5 397/1/5 396/1/5
f 399/1/5 397/1/5 398/1/5
f 402/1/5 401/1/5 400/1/5
f 403/1/5 401/1/5 402/1/5
f 408/1/5 405/1/5 404/1/5
f 409/1/5 405/1/5 408/1/5
f 411/1/5 407/1/5 406/1/5
f 412/1/5 407/1/5 411/1/5
f 413/1/5 410/1/5 409/1/5
f 414/1/5 410/1/5 413/1/5
f 417/1/5 416/1/5 415/1/5
f 418/1/5 416/1/5 417/1/5
f 421/1/5 420/1/5 419/1/5
f 422/1/5 420/1/5 421/1/5
f 426/1/5 424/1/5 423/1/5
f 427/1/5 424/1/5 426/1/5
f 428/1/5 426/1/5 425/1/5
f 429/1/5 426/1/5 428/1/5
f 432/1/5 431/1/5 430/1/5
f 433/1/5 431/1/5 432/1/5
f 436/1/5 435/1/5 434/1/5
f 437/1/5 435/1/5 436/1/5
f 438/2/6 439/2/6 441/2/6
f 441/2/6 439/2/6 442/2/6
f 440/2/6 441/2/6 444/2/6
f 442/2/6 443/2/6 444/2/6
f 441/2/6 442/2/6 444/2/6
f 444/2/6 443/2/6 445/2/6
f 440/2/6 444/2/6 446/2/6
f 445/2/6 443/2/6 447/2/6
f 440/2/6 446/2/6 448/2/6
f 446/2/6 447/2/6 448/2/6
f 448/2/6 447/2/6 449/2/6
f 447/2/6 443/2/6 450/2/6
f 449/2/6 447/2/6 450/2/6
f 450/2/6 443/2/6 451/2/6
f 449/2/6 450/2/6 452/2/6
f 452/2/6 450/2/6 453/2/6
f 454/3/6 455/3/6 456/3/6
f 456/3/6 455/3/6 457/3/6
f 458/3/6 459/3/6 460/3/6
f 460/3/6 459/3/6 461/3/6
f 462/3/6 463/3/6 464/3/6
f 464/3/6 463/3/6 465/3/6
f 466/3/6 467/3/6 468/3/6
f 468/3/6 467/3/6 469/3/6
f 470/3/6 471/3/6 474/3/6
f 474/3/6 471/3/6 475/3/6
f 472/3/6 473/3/6 476/3/6
f 476/3/6 473/3/6 477/3/6
f 478/1/6 479/1/6 480/1/6
f 480/1/6 479/1/6 481/1/6
f 482/1/6 483/1/6 484/1/6
f 484/1/6 483/1/6 485/1/6
f 488/1/6 489/1/6 490/1/6
f 490/1/6 489/1/6 491/1/6
f 486/1/6 487/1/6 492/1/6
f 492/1/6 487/1/6 493/1/6
f 494/1/6 495/1/6 496/1/6
f 496/1/6 495/1/6 497/1/6
f 498/1/6 499/1/6 501/1/6
f 501/1/6 499/1/6 502/1/6
f 500/1/6 501/1/6 503/1/6
f 503/1/6 501/1/6 504/1/6
f 504/1/6 505/1/6 506/1/6
f 506/1/6 505/1/6 507/1/6
f 508/1/6 509/1/6 510/1/6
f 510/1/6 509/1/6 511/1/6
f 512/1/6 513/1/6 514/1/6
f 514/1/6 513/1/6 515/1/6
f 512/1/6 514/1/6 516/1/6
f 516/1/6 514/1/6 517/1/6
f 515/1/6 513/1/6 518/1/6
f 518/1/6 513/1/6 519/1/6
f 520/1/6 521/1/6 523/1/6
f 521/1/6 522/1/6 523/1/6
f 523/1/6 522/1/6 524/1/6
f 525/1/6 526/1/6 527/1/6
f 527/1/6 526/1/6 528/1/6
